<svg width="35" height="35" viewBox="0 0 35 35" fill="none" xmlns="http://www.w3.org/2000/svg">
<circle cx="17.5" cy="17.5" r="17.5" fill="white"/>
<path d="M27.8051 16.0415H26.9996V16H17.9998V20H23.6512C22.8267 22.3285 20.6112 24 17.9998 24C14.6864 24 11.9999 21.3135 11.9999 18C11.9999 14.6865 14.6864 12 17.9998 12C19.5293 12 20.9207 12.577 21.9802 13.5195L24.8087 10.691C23.0227 9.0265 20.6337 8 17.9998 8C12.4774 8 8 12.4775 8 18C8 23.5225 12.4774 28 17.9998 28C23.5222 28 27.9996 23.5225 27.9996 18C27.9996 17.3295 27.9306 16.675 27.8051 16.0415Z" fill="#FFC107"/>
<path d="M9.15332 13.3455L12.4388 15.755C13.3277 13.554 15.4807 12 18.0001 12C19.5296 12 20.9211 12.577 21.9806 13.5195L24.809 10.691C23.023 9.0265 20.6341 8 18.0001 8C14.1592 8 10.8283 10.1685 9.15332 13.3455Z" fill="#FF3D00"/>
<path d="M18 27.9999C20.5829 27.9999 22.9299 27.0114 24.7043 25.4039L21.6094 22.7849C20.6054 23.5454 19.3575 23.9999 18 23.9999C15.399 23.9999 13.1906 22.3414 12.3586 20.0269L9.09766 22.5394C10.7526 25.7779 14.1136 27.9999 18 27.9999Z" fill="#4CAF50"/>
<path d="M27.8053 16.0415H26.9998V16H18V20H23.6514C23.2554 21.1185 22.5359 22.083 21.6079 22.7855C21.6084 22.785 21.6089 22.785 21.6094 22.7845L24.7044 25.4035C24.4854 25.6025 27.9998 23 27.9998 18C27.9998 17.3295 27.9308 16.675 27.8053 16.0415Z" fill="#1976D2"/>
</svg>
