<svg width="35" height="35" viewBox="0 0 35 35" fill="none" xmlns="http://www.w3.org/2000/svg">
<path d="M35 17.5C35 7.83399 27.166 0 17.5 0C7.83399 0 0 7.83399 0 17.5C0 26.2363 6.39843 33.4756 14.7655 34.7881V22.5586H10.3223V17.5H14.7655V13.6445C14.7655 9.25928 17.377 6.83595 21.3759 6.83595C23.2901 6.83595 25.2929 7.17774 25.2929 7.17774V11.4844H23.0849C20.9111 11.4844 20.2345 12.8345 20.2345 14.2188V17.5H25.0878L24.312 22.5586H20.2345V34.7881C28.6015 33.4756 35 26.2363 35 17.5Z" fill="#1877F2"/>
<path d="M24.312 22.5586L25.0878 17.5H20.2345V14.2187C20.2345 12.8345 20.9111 11.4844 23.0849 11.4844H25.2929V7.17773C25.2929 7.17773 23.2901 6.83594 21.3759 6.83594C17.377 6.83594 14.7655 9.25927 14.7655 13.6445V17.5H10.3223V22.5586H14.7655V34.7881C15.6577 34.9282 16.5703 35 17.5 35C18.4297 35 19.3423 34.9282 20.2345 34.7881V22.5586H24.312Z" fill="white"/>
</svg>
