<svg width="35" height="35" viewBox="0 0 35 35" fill="none" xmlns="http://www.w3.org/2000/svg">
<circle cx="17.5" cy="17.5" r="17.5" fill="black"/>
<path d="M23.8783 16.9428C23.8682 15.0911 24.7058 13.6935 26.4011 12.6642C25.4525 11.3069 24.0196 10.5602 22.1275 10.4139C20.3364 10.2726 18.3787 11.4583 17.6622 11.4583C16.9054 11.4583 15.1697 10.4643 13.8074 10.4643C10.992 10.5097 8 12.7096 8 17.185C8 18.5069 8.24219 19.8726 8.72656 21.282C9.37239 23.1337 11.7034 27.6747 14.1354 27.599C15.4069 27.5687 16.305 26.6958 17.9599 26.6958C19.5644 26.6958 20.3969 27.599 21.8147 27.599C24.2668 27.5637 26.3759 23.4364 26.9914 21.5797C23.7017 20.0307 23.8783 17.0387 23.8783 16.9428ZM21.0226 8.65802C22.4 7.02326 22.2738 5.53483 22.2335 5C21.0175 5.07064 19.6098 5.82747 18.8076 6.7609C17.9246 7.75991 17.4049 8.99607 17.5159 10.3886C18.8328 10.4896 20.0336 9.81345 21.0226 8.65802Z" fill="white"/>
</svg>
